<svg width="58" height="50" viewBox="0 0 58 50" fill="none" xmlns="http://www.w3.org/2000/svg">
<rect width="57.6923" height="50" rx="5" fill="#FBF4F4"/>
<path d="M20.5118 22.4166H19.3034C17.6545 22.357 16.0109 22.637 14.4746 23.2391C12.9384 23.8411 11.5422 24.7525 10.3729 25.9166L10.0396 26.3055V37.8055H15.7062V31.2778L16.4701 30.4166L16.8173 30.0139C18.6256 28.1562 20.8767 26.7893 23.359 26.0416C22.1162 25.096 21.1361 23.8481 20.5118 22.4166Z" fill="#A7161A"/>
<path d="M47.3731 25.875C46.2038 24.7109 44.8076 23.7995 43.2714 23.1974C41.7351 22.5953 40.0915 22.3154 38.4425 22.375C37.9368 22.3764 37.4315 22.4043 36.9287 22.4583C36.2927 23.8013 35.3393 24.9692 34.1509 25.8611C36.8009 26.5942 39.2014 28.0346 41.0953 30.0278L41.4426 30.4167L42.1926 31.2778V37.8195H47.6648V26.2639L47.3731 25.875Z" fill="#A7161A"/>
<path d="M19.2615 19.7083H19.6921C19.492 17.9906 19.7934 16.2517 20.5599 14.7015C21.3264 13.1513 22.5252 11.8561 24.0115 10.9722C23.4727 10.1491 22.7294 9.48 21.8543 9.03047C20.9793 8.58095 20.0024 8.36639 19.0195 8.40781C18.0366 8.44923 17.0813 8.74521 16.2471 9.26677C15.413 9.78833 14.7286 10.5176 14.2609 11.3831C13.7933 12.2487 13.5585 13.2208 13.5794 14.2044C13.6004 15.1879 13.8764 16.1492 14.3805 16.994C14.8846 17.8388 15.5995 18.5383 16.4551 19.0238C17.3107 19.5094 18.2778 19.7644 19.2615 19.7639V19.7083Z" fill="#A7161A"/>
<path d="M37.7761 18.6667C37.793 18.9859 37.793 19.3058 37.7761 19.625C38.0427 19.6673 38.3119 19.6905 38.5817 19.6944H38.8456C39.8251 19.6422 40.7743 19.3373 41.6009 18.8093C42.4276 18.2813 43.1034 17.5483 43.5626 16.6816C44.0218 15.8148 44.2488 14.844 44.2215 13.8635C44.1941 12.8831 43.9133 11.9264 43.4065 11.0866C42.8997 10.2469 42.184 9.55265 41.3292 9.07157C40.4745 8.5905 39.5097 8.33895 38.5288 8.34142C37.548 8.34389 36.5845 8.60029 35.7321 9.08566C34.8798 9.57103 34.1676 10.2688 33.665 11.1111C34.9221 11.9319 35.9558 13.0518 36.6733 14.3705C37.3908 15.6892 37.7698 17.1654 37.7761 18.6667Z" fill="#A7161A"/>
<path d="M28.6644 24.8889C32.0932 24.8889 34.8727 22.1093 34.8727 18.6805C34.8727 15.2518 32.0932 12.4722 28.6644 12.4722C25.2356 12.4722 22.4561 15.2518 22.4561 18.6805C22.4561 22.1093 25.2356 24.8889 28.6644 24.8889Z" fill="#A7161A"/>
<path d="M28.9981 28.1944C27.1843 28.1212 25.3744 28.4157 23.6773 29.0601C21.9803 29.7046 20.4311 30.6857 19.1231 31.9444L18.7759 32.3333V41.125C18.7813 41.4113 18.8431 41.6938 18.9577 41.9563C19.0723 42.2188 19.2375 42.4562 19.4439 42.6548C19.6503 42.8534 19.8937 43.0094 20.1604 43.1139C20.4271 43.2184 20.7117 43.2694 20.9981 43.2639H36.9564C37.2428 43.2694 37.5275 43.2184 37.7941 43.1139C38.0608 43.0094 38.3043 42.8534 38.5106 42.6548C38.717 42.4562 38.8822 42.2188 38.9968 41.9563C39.1115 41.6938 39.1732 41.4113 39.1787 41.125V32.3611L38.8453 31.9444C37.5458 30.6818 36.002 29.6979 34.3087 29.0531C32.6155 28.4083 30.8083 28.1161 28.9981 28.1944Z" fill="#A7161A"/>
</svg>
