<svg width="273" height="380" viewBox="0 0 273 380" fill="none" xmlns="http://www.w3.org/2000/svg">
<rect x="13" width="20" height="20" rx="10" fill="#F9F9F9"/>
<rect x="53" width="20" height="20" rx="10" fill="#F9F9F9"/>
<rect x="93" width="20" height="20" rx="10" fill="#F9F9F9"/>
<rect x="133" width="20" height="20" rx="10" fill="#F9F9F9"/>
<rect x="173" width="20" height="20" rx="10" fill="#F9F9F9"/>
<rect x="213" width="20" height="20" rx="10" fill="#F9F9F9"/>
<rect x="253" width="20" height="20" rx="10" fill="#F9F9F9"/>
<rect x="13" y="40" width="20" height="20" rx="10" fill="#F9F9F9"/>
<rect x="53" y="40" width="20" height="20" rx="10" fill="#F9F9F9"/>
<rect x="93" y="40" width="20" height="20" rx="10" fill="#F9F9F9"/>
<rect x="133" y="40" width="20" height="20" rx="10" fill="#F9F9F9"/>
<rect x="173" y="40" width="20" height="20" rx="10" fill="#F9F9F9"/>
<rect x="213" y="40" width="20" height="20" rx="10" fill="#F9F9F9"/>
<rect x="253" y="40" width="20" height="20" rx="10" fill="#F9F9F9"/>
<rect x="13" y="80" width="20" height="20" rx="10" fill="#F9F9F9"/>
<rect x="53" y="80" width="20" height="20" rx="10" fill="#F9F9F9"/>
<rect x="93" y="80" width="20" height="20" rx="10" fill="#F9F9F9"/>
<rect x="133" y="80" width="20" height="20" rx="10" fill="#F9F9F9"/>
<rect x="173" y="80" width="20" height="20" rx="10" fill="#F9F9F9"/>
<rect x="213" y="80" width="20" height="20" rx="10" fill="#F9F9F9"/>
<rect x="253" y="80" width="20" height="20" rx="10" fill="#F9F9F9"/>
<rect x="13" y="120" width="20" height="20" rx="10" fill="#F9F9F9"/>
<rect x="53" y="120" width="20" height="20" rx="10" fill="#F9F9F9"/>
<rect x="93" y="120" width="20" height="20" rx="10" fill="#F9F9F9"/>
<rect x="133" y="120" width="20" height="20" rx="10" fill="#F9F9F9"/>
<rect x="173" y="120" width="20" height="20" rx="10" fill="#F9F9F9"/>
<rect x="213" y="120" width="20" height="20" rx="10" fill="#F9F9F9"/>
<rect x="253" y="120" width="20" height="20" rx="10" fill="#F9F9F9"/>
<rect x="13" y="160" width="20" height="20" rx="10" fill="#F9F9F9"/>
<rect x="53" y="160" width="20" height="20" rx="10" fill="#F9F9F9"/>
<rect x="93" y="160" width="20" height="20" rx="10" fill="#F9F9F9"/>
<rect x="133" y="160" width="20" height="20" rx="10" fill="#F9F9F9"/>
<rect x="173" y="160" width="20" height="20" rx="10" fill="#F9F9F9"/>
<rect x="213" y="160" width="20" height="20" rx="10" fill="#F9F9F9"/>
<rect x="253" y="160" width="20" height="20" rx="10" fill="#F9F9F9"/>
<rect x="13" y="200" width="20" height="20" rx="10" fill="#F9F9F9"/>
<rect x="53" y="200" width="20" height="20" rx="10" fill="#F9F9F9"/>
<rect x="93" y="200" width="20" height="20" rx="10" fill="#F9F9F9"/>
<rect x="133" y="200" width="20" height="20" rx="10" fill="#F9F9F9"/>
<rect x="173" y="200" width="20" height="20" rx="10" fill="#F9F9F9"/>
<rect x="213" y="200" width="20" height="20" rx="10" fill="#F9F9F9"/>
<rect x="253" y="200" width="20" height="20" rx="10" fill="#F9F9F9"/>
<rect x="13" y="240" width="20" height="20" rx="10" fill="#F9F9F9"/>
<rect x="53" y="240" width="20" height="20" rx="10" fill="#F9F9F9"/>
<rect x="93" y="240" width="20" height="20" rx="10" fill="#F9F9F9"/>
<rect x="133" y="240" width="20" height="20" rx="10" fill="#F9F9F9"/>
<rect x="173" y="240" width="20" height="20" rx="10" fill="#F9F9F9"/>
<rect x="213" y="240" width="20" height="20" rx="10" fill="#F9F9F9"/>
<rect x="253" y="240" width="20" height="20" rx="10" fill="#F9F9F9"/>
<rect x="13" y="280" width="20" height="20" rx="10" fill="#F9F9F9"/>
<rect x="53" y="280" width="20" height="20" rx="10" fill="#F9F9F9"/>
<rect x="93" y="280" width="20" height="20" rx="10" fill="#F9F9F9"/>
<rect x="133" y="280" width="20" height="20" rx="10" fill="#F9F9F9"/>
<rect x="173" y="280" width="20" height="20" rx="10" fill="#F9F9F9"/>
<rect x="213" y="280" width="20" height="20" rx="10" fill="#F9F9F9"/>
<rect x="253" y="280" width="20" height="20" rx="10" fill="#F9F9F9"/>
<rect x="13" y="320" width="20" height="20" rx="10" fill="#F9F9F9"/>
<rect x="53" y="320" width="20" height="20" rx="10" fill="#F9F9F9"/>
<rect x="93" y="320" width="20" height="20" rx="10" fill="#F9F9F9"/>
<rect x="133" y="320" width="20" height="20" rx="10" fill="#F9F9F9"/>
<rect x="173" y="320" width="20" height="20" rx="10" fill="#F9F9F9"/>
<rect x="213" y="320" width="20" height="20" rx="10" fill="#F9F9F9"/>
<rect x="253" y="320" width="20" height="20" rx="10" fill="#F9F9F9"/>
<rect x="13" y="360" width="20" height="20" rx="10" fill="#F9F9F9"/>
<rect x="53" y="360" width="20" height="20" rx="10" fill="#F9F9F9"/>
<rect x="93" y="360" width="20" height="20" rx="10" fill="#F9F9F9"/>
<rect x="133" y="360" width="20" height="20" rx="10" fill="#F9F9F9"/>
<rect x="173" y="360" width="20" height="20" rx="10" fill="#F9F9F9"/>
<rect x="213" y="360" width="20" height="20" rx="10" fill="#F9F9F9"/>
<rect x="253" y="360" width="20" height="20" rx="10" fill="#F9F9F9"/>
</svg>
