<svg width="154" height="380" viewBox="0 0 154 380" fill="none" xmlns="http://www.w3.org/2000/svg">
<g opacity="0.9">
<rect x="140" width="20" height="20" rx="10" transform="rotate(90 140 0)" fill="#DDE7EE"/>
<rect x="140" y="40" width="20" height="20" rx="10" transform="rotate(90 140 40)" fill="#DDE7EE"/>
<rect x="140" y="80" width="20" height="20" rx="10" transform="rotate(90 140 80)" fill="#DDE7EE"/>
<rect x="140" y="120" width="20" height="20" rx="10" transform="rotate(90 140 120)" fill="#DDE7EE"/>
<rect x="140" y="160" width="20" height="20" rx="10" transform="rotate(90 140 160)" fill="#DDE7EE"/>
<rect x="140" y="200" width="20" height="20" rx="10" transform="rotate(90 140 200)" fill="#DDE7EE"/>
<rect x="140" y="240" width="20" height="20" rx="10" transform="rotate(90 140 240)" fill="#DDE7EE"/>
<rect x="140" y="280" width="20" height="20" rx="10" transform="rotate(90 140 280)" fill="#DDE7EE"/>
<rect x="140" y="320" width="20" height="20" rx="10" transform="rotate(90 140 320)" fill="#DDE7EE"/>
<rect x="140" y="360" width="20" height="20" rx="10" transform="rotate(90 140 360)" fill="#DDE7EE"/>
<rect x="100" width="20" height="20" rx="10" transform="rotate(90 100 0)" fill="#DDE7EE"/>
<rect x="100" y="40" width="20" height="20" rx="10" transform="rotate(90 100 40)" fill="#DDE7EE"/>
<rect x="100" y="80" width="20" height="20" rx="10" transform="rotate(90 100 80)" fill="#DDE7EE"/>
<rect x="100" y="120" width="20" height="20" rx="10" transform="rotate(90 100 120)" fill="#DDE7EE"/>
<rect x="100" y="160" width="20" height="20" rx="10" transform="rotate(90 100 160)" fill="#DDE7EE"/>
<rect x="100" y="200" width="20" height="20" rx="10" transform="rotate(90 100 200)" fill="#DDE7EE"/>
<rect x="100" y="240" width="20" height="20" rx="10" transform="rotate(90 100 240)" fill="#DDE7EE"/>
<rect x="100" y="280" width="20" height="20" rx="10" transform="rotate(90 100 280)" fill="#DDE7EE"/>
<rect x="100" y="320" width="20" height="20" rx="10" transform="rotate(90 100 320)" fill="#DDE7EE"/>
<rect x="100" y="360" width="20" height="20" rx="10" transform="rotate(90 100 360)" fill="#DDE7EE"/>
<rect x="60" width="20" height="20" rx="10" transform="rotate(90 60 0)" fill="#DDE7EE"/>
<rect x="60" y="40" width="20" height="20" rx="10" transform="rotate(90 60 40)" fill="#DDE7EE"/>
<rect x="60" y="80" width="20" height="20" rx="10" transform="rotate(90 60 80)" fill="#DDE7EE"/>
<rect x="60" y="120" width="20" height="20" rx="10" transform="rotate(90 60 120)" fill="#DDE7EE"/>
<rect x="60" y="160" width="20" height="20" rx="10" transform="rotate(90 60 160)" fill="#DDE7EE"/>
<rect x="60" y="200" width="20" height="20" rx="10" transform="rotate(90 60 200)" fill="#DDE7EE"/>
<rect x="60" y="240" width="20" height="20" rx="10" transform="rotate(90 60 240)" fill="#DDE7EE"/>
<rect x="60" y="280" width="20" height="20" rx="10" transform="rotate(90 60 280)" fill="#DDE7EE"/>
<rect x="60" y="320" width="20" height="20" rx="10" transform="rotate(90 60 320)" fill="#DDE7EE"/>
<rect x="60" y="360" width="20" height="20" rx="10" transform="rotate(90 60 360)" fill="#DDE7EE"/>
<rect x="20" width="20" height="20" rx="10" transform="rotate(90 20 0)" fill="#DDE7EE"/>
<rect x="20" y="40" width="20" height="20" rx="10" transform="rotate(90 20 40)" fill="#DDE7EE"/>
<rect x="20" y="80" width="20" height="20" rx="10" transform="rotate(90 20 80)" fill="#DDE7EE"/>
<rect x="20" y="120" width="20" height="20" rx="10" transform="rotate(90 20 120)" fill="#DDE7EE"/>
<rect x="20" y="160" width="20" height="20" rx="10" transform="rotate(90 20 160)" fill="#DDE7EE"/>
<rect x="20" y="200" width="20" height="20" rx="10" transform="rotate(90 20 200)" fill="#DDE7EE"/>
<rect x="20" y="240" width="20" height="20" rx="10" transform="rotate(90 20 240)" fill="#DDE7EE"/>
<rect x="20" y="280" width="20" height="20" rx="10" transform="rotate(90 20 280)" fill="#DDE7EE"/>
<rect x="20" y="320" width="20" height="20" rx="10" transform="rotate(90 20 320)" fill="#DDE7EE"/>
<rect x="20" y="360" width="20" height="20" rx="10" transform="rotate(90 20 360)" fill="#DDE7EE"/>
</g>
</svg>
