<svg width="253" height="180" viewBox="0 0 253 180" fill="none" xmlns="http://www.w3.org/2000/svg">
<g opacity="0.03">
<rect x="-7" width="20" height="20" rx="10" fill="#F9F9F9"/>
<rect x="33" width="20" height="20" rx="10" fill="#F9F9F9"/>
<rect x="73" width="20" height="20" rx="10" fill="#F9F9F9"/>
<rect x="113" width="20" height="20" rx="10" fill="#F9F9F9"/>
<rect x="153" width="20" height="20" rx="10" fill="#F9F9F9"/>
<rect x="193" width="20" height="20" rx="10" fill="#F9F9F9"/>
<rect x="233" width="20" height="20" rx="10" fill="#F9F9F9"/>
<rect x="-7" y="40" width="20" height="20" rx="10" fill="#F9F9F9"/>
<rect x="33" y="40" width="20" height="20" rx="10" fill="#F9F9F9"/>
<rect x="73" y="40" width="20" height="20" rx="10" fill="#F9F9F9"/>
<rect x="113" y="40" width="20" height="20" rx="10" fill="#F9F9F9"/>
<rect x="153" y="40" width="20" height="20" rx="10" fill="#F9F9F9"/>
<rect x="193" y="40" width="20" height="20" rx="10" fill="#F9F9F9"/>
<rect x="233" y="40" width="20" height="20" rx="10" fill="#F9F9F9"/>
<rect x="-7" y="80" width="20" height="20" rx="10" fill="#F9F9F9"/>
<rect x="33" y="80" width="20" height="20" rx="10" fill="#F9F9F9"/>
<rect x="73" y="80" width="20" height="20" rx="10" fill="#F9F9F9"/>
<rect x="113" y="80" width="20" height="20" rx="10" fill="#F9F9F9"/>
<rect x="153" y="80" width="20" height="20" rx="10" fill="#F9F9F9"/>
<rect x="193" y="80" width="20" height="20" rx="10" fill="#F9F9F9"/>
<rect x="233" y="80" width="20" height="20" rx="10" fill="#F9F9F9"/>
<rect x="-7" y="120" width="20" height="20" rx="10" fill="#F9F9F9"/>
<rect x="33" y="120" width="20" height="20" rx="10" fill="#F9F9F9"/>
<rect x="73" y="120" width="20" height="20" rx="10" fill="#F9F9F9"/>
<rect x="113" y="120" width="20" height="20" rx="10" fill="#F9F9F9"/>
<rect x="153" y="120" width="20" height="20" rx="10" fill="#F9F9F9"/>
<rect x="193" y="120" width="20" height="20" rx="10" fill="#F9F9F9"/>
<rect x="233" y="120" width="20" height="20" rx="10" fill="#F9F9F9"/>
<rect x="-7" y="160" width="20" height="20" rx="10" fill="#F9F9F9"/>
<rect x="33" y="160" width="20" height="20" rx="10" fill="#F9F9F9"/>
<rect x="73" y="160" width="20" height="20" rx="10" fill="#F9F9F9"/>
<rect x="113" y="160" width="20" height="20" rx="10" fill="#F9F9F9"/>
<rect x="153" y="160" width="20" height="20" rx="10" fill="#F9F9F9"/>
<rect x="193" y="160" width="20" height="20" rx="10" fill="#F9F9F9"/>
<rect x="233" y="160" width="20" height="20" rx="10" fill="#F9F9F9"/>
</g>
</svg>
