<svg width="348" height="140" viewBox="0 0 348 140" fill="none" xmlns="http://www.w3.org/2000/svg">
<rect opacity="0.1" width="20" height="20" rx="10" fill="#F9F9F9"/>
<rect opacity="0.1" x="40" width="20" height="20" rx="10" fill="#F9F9F9"/>
<rect opacity="0.1" x="80" width="20" height="20" rx="10" fill="#F9F9F9"/>
<rect opacity="0.1" x="120" width="20" height="20" rx="10" fill="#F9F9F9"/>
<rect opacity="0.1" x="160" width="20" height="20" rx="10" fill="#F9F9F9"/>
<rect opacity="0.1" x="200" width="20" height="20" rx="10" fill="#F9F9F9"/>
<rect opacity="0.1" x="240" width="20" height="20" rx="10" fill="#F9F9F9"/>
<rect opacity="0.1" x="280" width="20" height="20" rx="10" fill="#F9F9F9"/>
<rect opacity="0.1" x="320" width="20" height="20" rx="10" fill="#F9F9F9"/>
<rect opacity="0.1" y="40" width="20" height="20" rx="10" fill="#F9F9F9"/>
<rect opacity="0.1" x="40" y="40" width="20" height="20" rx="10" fill="#F9F9F9"/>
<rect opacity="0.1" x="80" y="40" width="20" height="20" rx="10" fill="#F9F9F9"/>
<rect opacity="0.1" x="120" y="40" width="20" height="20" rx="10" fill="#F9F9F9"/>
<rect opacity="0.1" x="160" y="40" width="20" height="20" rx="10" fill="#F9F9F9"/>
<rect opacity="0.1" x="200" y="40" width="20" height="20" rx="10" fill="#F9F9F9"/>
<rect opacity="0.1" x="240" y="40" width="20" height="20" rx="10" fill="#F9F9F9"/>
<rect opacity="0.1" x="280" y="40" width="20" height="20" rx="10" fill="#F9F9F9"/>
<rect opacity="0.1" x="320" y="40" width="20" height="20" rx="10" fill="#F9F9F9"/>
<rect opacity="0.1" y="80" width="20" height="20" rx="10" fill="#F9F9F9"/>
<rect opacity="0.1" x="40" y="80" width="20" height="20" rx="10" fill="#F9F9F9"/>
<rect opacity="0.1" x="80" y="80" width="20" height="20" rx="10" fill="#F9F9F9"/>
<rect opacity="0.1" x="120" y="80" width="20" height="20" rx="10" fill="#F9F9F9"/>
<rect opacity="0.1" x="160" y="80" width="20" height="20" rx="10" fill="#F9F9F9"/>
<rect opacity="0.1" x="200" y="80" width="20" height="20" rx="10" fill="#F9F9F9"/>
<rect opacity="0.1" x="240" y="80" width="20" height="20" rx="10" fill="#F9F9F9"/>
<rect opacity="0.1" x="280" y="80" width="20" height="20" rx="10" fill="#F9F9F9"/>
<rect opacity="0.1" x="320" y="80" width="20" height="20" rx="10" fill="#F9F9F9"/>
<rect opacity="0.1" y="120" width="20" height="20" rx="10" fill="#F9F9F9"/>
<rect opacity="0.1" x="40" y="120" width="20" height="20" rx="10" fill="#F9F9F9"/>
<rect opacity="0.1" x="80" y="120" width="20" height="20" rx="10" fill="#F9F9F9"/>
<rect opacity="0.1" x="120" y="120" width="20" height="20" rx="10" fill="#F9F9F9"/>
<rect opacity="0.1" x="160" y="120" width="20" height="20" rx="10" fill="#F9F9F9"/>
<rect opacity="0.1" x="200" y="120" width="20" height="20" rx="10" fill="#F9F9F9"/>
<rect opacity="0.1" x="240" y="120" width="20" height="20" rx="10" fill="#F9F9F9"/>
<rect opacity="0.1" x="280" y="120" width="20" height="20" rx="10" fill="#F9F9F9"/>
<rect opacity="0.1" x="320" y="120" width="20" height="20" rx="10" fill="#F9F9F9"/>
</svg>
