<svg width="58" height="50" viewBox="0 0 58 50" fill="none" xmlns="http://www.w3.org/2000/svg">
<rect width="57.6923" height="50" rx="5" fill="#FBF4F4"/>
<path d="M28.8451 45.8334C17.3388 45.8334 8.01172 36.5063 8.01172 25C8.01172 13.4938 17.3388 4.16669 28.8451 4.16669C40.3513 4.16669 49.6784 13.4938 49.6784 25C49.6784 36.5063 40.3513 45.8334 28.8451 45.8334ZM42.0846 33.2334V33.0146C42.0846 31.0938 42.0846 30.2167 40.7263 29.4396C40.2897 29.1921 39.8413 28.9661 39.3826 28.7625C38.618 28.4146 38.1117 28.1875 37.4284 27.1875C37.3468 27.0688 37.2662 26.9493 37.1867 26.8292C36.468 25.7354 35.9492 24.9479 33.9742 25.2604C30.0888 25.8771 29.8013 26.5604 29.6305 27.7146L29.6034 27.9042C29.3513 29.5917 29.3055 30.1584 30.0096 30.8979C32.6451 33.6625 34.2242 35.6563 34.7034 36.8229C34.9367 37.3917 35.5367 39.1146 35.1242 40.8188C37.653 39.8115 39.9039 38.2135 41.6888 36.1584C41.918 35.3792 42.0846 34.4084 42.0846 33.2334ZM28.8451 7.98544C24.018 7.98544 19.6576 9.99794 16.5617 13.2271C16.9305 13.4834 17.2513 13.8438 17.4721 14.3396C17.8971 15.2917 17.8971 16.2729 17.8971 17.1417C17.8971 17.825 17.8971 18.475 18.1159 18.9438C18.4159 19.5854 19.7117 19.8604 20.8555 20.0979C21.2659 20.1854 21.6867 20.2729 22.0701 20.3792C23.1242 20.6709 23.9409 21.6188 24.593 22.3792C24.8638 22.6938 25.2659 23.1584 25.468 23.275C25.5721 23.2 25.9076 22.8354 26.0721 22.2375C26.2013 21.7792 26.1638 21.375 25.9784 21.1542C24.8117 19.7792 24.8763 17.1334 25.2367 16.1563C25.8034 14.6167 27.5742 14.7313 28.8701 14.8146C29.3534 14.8459 29.8076 14.8771 30.1492 14.8334C31.4451 14.6709 31.8451 12.6979 32.1263 12.3125C32.7346 11.4792 34.5971 10.2229 35.7513 9.44794C33.5773 8.48126 31.2243 7.98296 28.8451 7.98544Z" fill="#A7161A"/>
</svg>
