<svg width="58" height="50" viewBox="0 0 58 50" fill="none" xmlns="http://www.w3.org/2000/svg">
<rect width="57.6923" height="50" rx="5" fill="#FBF4F4"/>
<path d="M28.8451 8.33331C17.3576 8.33331 8.01173 17.6791 8.01173 29.1666C8.00903 32.382 8.75888 35.5534 10.2013 38.4271C10.5555 39.1354 11.2763 39.5833 12.0659 39.5833H45.6221C46.4117 39.5833 47.1346 39.1354 47.4888 38.4271C48.9312 35.5534 49.6811 32.382 49.6784 29.1666C49.6784 17.6791 40.3326 8.33331 28.8451 8.33331ZM39.3076 18.7958L31.0534 31.375C30.8238 31.7257 30.5272 32.0276 30.1807 32.2636C29.8342 32.4995 29.4446 32.6648 29.0342 32.7499C28.6237 32.8351 28.2005 32.8384 27.7888 32.7598C27.377 32.6811 26.9848 32.5221 26.6346 32.2916C26.1915 32.0018 25.8275 31.6062 25.5756 31.1404C25.3236 30.6747 25.1917 30.1535 25.1917 29.6239C25.1917 29.0944 25.3236 28.5732 25.5756 28.1075C25.8275 27.6417 26.1915 27.246 26.6346 26.9562L39.2138 18.7021C39.2291 18.6926 39.2474 18.6895 39.2649 18.6934C39.2824 18.6973 39.2977 18.7079 39.3076 18.7229C39.3142 18.7339 39.3177 18.7465 39.3177 18.7594C39.3177 18.7722 39.3142 18.7848 39.3076 18.7958Z" fill="#A7161A"/>
</svg>
