<svg width="348" height="220" viewBox="0 0 348 220" fill="none" xmlns="http://www.w3.org/2000/svg">
<rect width="20" height="20" rx="10" fill="#F9F9F9"/>
<rect x="40" width="20" height="20" rx="10" fill="#F9F9F9"/>
<rect x="80" width="20" height="20" rx="10" fill="#F9F9F9"/>
<rect x="120" width="20" height="20" rx="10" fill="#F9F9F9"/>
<rect x="160" width="20" height="20" rx="10" fill="#F9F9F9"/>
<rect x="200" width="20" height="20" rx="10" fill="#F9F9F9"/>
<rect x="240" width="20" height="20" rx="10" fill="#F9F9F9"/>
<rect x="280" width="20" height="20" rx="10" fill="#F9F9F9"/>
<rect x="320" width="20" height="20" rx="10" fill="#F9F9F9"/>
<rect y="40" width="20" height="20" rx="10" fill="#F9F9F9"/>
<rect x="40" y="40" width="20" height="20" rx="10" fill="#F9F9F9"/>
<rect x="80" y="40" width="20" height="20" rx="10" fill="#F9F9F9"/>
<rect x="120" y="40" width="20" height="20" rx="10" fill="#F9F9F9"/>
<rect x="160" y="40" width="20" height="20" rx="10" fill="#F9F9F9"/>
<rect x="200" y="40" width="20" height="20" rx="10" fill="#F9F9F9"/>
<rect x="240" y="40" width="20" height="20" rx="10" fill="#F9F9F9"/>
<rect x="280" y="40" width="20" height="20" rx="10" fill="#F9F9F9"/>
<rect x="320" y="40" width="20" height="20" rx="10" fill="#F9F9F9"/>
<rect y="80" width="20" height="20" rx="10" fill="#F9F9F9"/>
<rect x="40" y="80" width="20" height="20" rx="10" fill="#F9F9F9"/>
<rect x="80" y="80" width="20" height="20" rx="10" fill="#F9F9F9"/>
<rect x="120" y="80" width="20" height="20" rx="10" fill="#F9F9F9"/>
<rect x="160" y="80" width="20" height="20" rx="10" fill="#F9F9F9"/>
<rect x="200" y="80" width="20" height="20" rx="10" fill="#F9F9F9"/>
<rect x="240" y="80" width="20" height="20" rx="10" fill="#F9F9F9"/>
<rect x="280" y="80" width="20" height="20" rx="10" fill="#F9F9F9"/>
<rect x="320" y="80" width="20" height="20" rx="10" fill="#F9F9F9"/>
<rect y="120" width="20" height="20" rx="10" fill="#F9F9F9"/>
<rect x="40" y="120" width="20" height="20" rx="10" fill="#F9F9F9"/>
<rect x="80" y="120" width="20" height="20" rx="10" fill="#F9F9F9"/>
<rect x="120" y="120" width="20" height="20" rx="10" fill="#F9F9F9"/>
<rect x="160" y="120" width="20" height="20" rx="10" fill="#F9F9F9"/>
<rect x="200" y="120" width="20" height="20" rx="10" fill="#F9F9F9"/>
<rect x="240" y="120" width="20" height="20" rx="10" fill="#F9F9F9"/>
<rect x="280" y="120" width="20" height="20" rx="10" fill="#F9F9F9"/>
<rect x="320" y="120" width="20" height="20" rx="10" fill="#F9F9F9"/>
<rect y="160" width="20" height="20" rx="10" fill="#F9F9F9"/>
<rect x="40" y="160" width="20" height="20" rx="10" fill="#F9F9F9"/>
<rect x="80" y="160" width="20" height="20" rx="10" fill="#F9F9F9"/>
<rect x="120" y="160" width="20" height="20" rx="10" fill="#F9F9F9"/>
<rect x="160" y="160" width="20" height="20" rx="10" fill="#F9F9F9"/>
<rect x="200" y="160" width="20" height="20" rx="10" fill="#F9F9F9"/>
<rect x="240" y="160" width="20" height="20" rx="10" fill="#F9F9F9"/>
<rect x="280" y="160" width="20" height="20" rx="10" fill="#F9F9F9"/>
<rect x="320" y="160" width="20" height="20" rx="10" fill="#F9F9F9"/>
<rect y="200" width="20" height="20" rx="10" fill="#F9F9F9"/>
<rect x="40" y="200" width="20" height="20" rx="10" fill="#F9F9F9"/>
<rect x="80" y="200" width="20" height="20" rx="10" fill="#F9F9F9"/>
<rect x="120" y="200" width="20" height="20" rx="10" fill="#F9F9F9"/>
<rect x="160" y="200" width="20" height="20" rx="10" fill="#F9F9F9"/>
<rect x="200" y="200" width="20" height="20" rx="10" fill="#F9F9F9"/>
<rect x="240" y="200" width="20" height="20" rx="10" fill="#F9F9F9"/>
<rect x="280" y="200" width="20" height="20" rx="10" fill="#F9F9F9"/>
<rect x="320" y="200" width="20" height="20" rx="10" fill="#F9F9F9"/>
</svg>
