<svg width="58" height="50" viewBox="0 0 58 50" fill="none" xmlns="http://www.w3.org/2000/svg">
<rect width="57.6923" height="50" rx="5" fill="#FBF4F4"/>
<g clip-path="url(#clip0)">
<path d="M41.9686 20.1301H30.0936V24.5051C30.0936 27.6067 27.5701 30.1301 24.4686 30.1301C21.367 30.1301 18.8436 27.6067 18.8436 24.5051V15.0051L13.7733 18.052C12.2655 18.9504 11.3436 20.5832 11.3436 22.3332V26.0285L5.09358 29.6379C3.89827 30.3254 3.4842 31.8567 4.17952 33.052L10.4295 43.8801C11.117 45.0755 12.6483 45.4817 13.8436 44.7942L21.9217 40.1301H32.5936C35.3514 40.1301 37.5936 37.8879 37.5936 35.1301H38.8436C40.2264 35.1301 41.3436 34.0129 41.3436 32.6301V27.6301H41.9686C43.0076 27.6301 43.8436 26.7942 43.8436 25.7551V22.0051C43.8436 20.966 43.0076 20.1301 41.9686 20.1301ZM53.5076 17.2082L47.2576 6.38009C46.5701 5.18477 45.0389 4.77852 43.8436 5.46602L35.7654 10.1301H27.7811C26.8436 10.1301 25.9295 10.3957 25.1326 10.8879L22.5154 12.5207C21.7811 12.9738 21.3436 13.7785 21.3436 14.6379V24.5051C21.3436 26.2317 22.742 27.6301 24.4686 27.6301C26.1951 27.6301 27.5936 26.2317 27.5936 24.5051V17.6301H41.9686C44.3826 17.6301 46.3436 19.591 46.3436 22.0051V24.2317L52.5936 20.6223C53.7889 19.927 54.1951 18.4035 53.5076 17.2082Z" fill="#A7161A"/>
</g>
<defs>
<clipPath id="clip0">
<rect width="50" height="40" fill="white" transform="translate(3.84473 5.12848)"/>
</clipPath>
</defs>
</svg>
